<svg xmlns="http://www.w3.org/2000/svg" width="33" height="33" viewBox="0 0 33 33" fill="none">    <g clip-path="url(#clip0_526_7954)">        <path d="M28.0627 10.9798L15.001 1.40187C13.9808 0.654814 12.7736 0.204852 11.5134 0.101856C10.2531 -0.00113868 8.9889 0.246856 7.86094 0.818351C6.73298 1.38985 5.7853 2.26252 5.12295 3.33964C4.4606 4.41676 4.10944 5.65625 4.10841 6.92073V26.0861C4.10644 27.3518 4.45576 28.5932 5.11748 29.6722C5.7792 30.7512 6.72737 31.6253 7.85643 32.1974C8.98549 32.7694 10.2512 33.0169 11.5125 32.9123C12.7739 32.8078 13.9815 32.3552 15.001 31.605L28.0627 22.0271C28.9294 21.391 29.6342 20.5599 30.1199 19.6008C30.6057 18.6418 30.8588 17.5819 30.8588 16.5068C30.8588 15.4318 30.6057 14.3719 30.1199 13.4128C29.6342 12.4538 28.9294 11.6226 28.0627 10.9866V10.9798Z"              fill="#F4F4F4"/>    </g>    <defs>        <clipPath id="clip0_526_7954">            <rect width="32.8667" height="32.8667" fill="white" transform="translate(0 0.0668945)"/>        </clipPath>    </defs></svg>